<svg width="24" height="24" viewBox="0 0 24 24" fill="none" xmlns="http://www.w3.org/2000/svg">
    <path
        d="M4.86572 11.6961C4.86572 11.9221 4.96366 12.1481 5.13693 12.3138L10.109 17.2784C10.2898 17.4517 10.4857 17.5345 10.7042 17.5345C11.1788 17.5345 11.5253 17.1955 11.5253 16.736C11.5253 16.4949 11.4349 16.2915 11.2767 16.1408L9.58168 14.4232L7.39697 12.4268L9.15227 12.5323H18.2829C18.7801 12.5323 19.1266 12.1858 19.1266 11.6961C19.1266 11.1989 18.7801 10.8523 18.2829 10.8523H9.15227L7.40451 10.9578L9.58168 8.96143L11.2767 7.24379C11.4349 7.09312 11.5253 6.88972 11.5253 6.64865C11.5253 6.1891 11.1788 5.8501 10.7042 5.8501C10.4857 5.8501 10.2823 5.93297 10.0864 6.1213L5.13693 11.0708C4.96366 11.2365 4.86572 11.4625 4.86572 11.6961Z"
        fill="current" />
</svg>