<svg width="40" height="40" viewBox="0 0 40 40" fill="none" xmlns="http://www.w3.org/2000/svg">
<path d="M30 15H23V13H30V15ZM31.7 25C31.3 26.3 29.7 28 26.6 28C23.5 28 21 26.3 21 22.3C21 18.4 23.3 16.4 26.5 16.4C29.6 16.4 31.5 18.2 31.9 20.8C32 21.3 32 22 32 23H24C24.1 26.2 27.5 26.3 28.6 25H31.7ZM24 21H29C28.9 19.5 27.9 18.8 26.5 18.8C25.1 18.8 24.3 19.5 24 21ZM14.5 28H8V13H15C20.5 13.1 20.6 18.4 17.7 19.9C21.1 21.2 21.2 28 14.5 28ZM11 19H14.6C17.1 19 17.5 16 14.3 16H11V19ZM14.4 22H11V25H14.3C17.4 25 17.2 22 14.4 22Z" fill="black" fill-opacity="0.32"/>
</svg>
