<svg width="48" height="48" viewBox="0 0 48 48" fill="none" xmlns="http://www.w3.org/2000/svg">
<path fill-rule="evenodd" clip-rule="evenodd" d="M24 0C10.7452 0 0 10.7452 0 24C0 37.2548 10.7452 48 24 48C37.2548 48 48 37.2548 48 24C48 10.7452 37.2548 0 24 0ZM18.7233 11.2773C20.0886 11.2152 20.5249 11.2 24.0012 11.2H23.9972C27.4746 11.2 27.9092 11.2152 29.2746 11.2773C30.6373 11.3397 31.5679 11.5555 32.384 11.872C33.2266 12.1987 33.9386 12.636 34.6506 13.348C35.3627 14.0595 35.8 14.7736 36.128 15.6155C36.4427 16.4294 36.6587 17.3595 36.7227 18.7222C36.784 20.0876 36.8 20.5238 36.8 24.0001C36.8 27.4764 36.784 27.9116 36.7227 29.277C36.6587 30.6391 36.4427 31.5695 36.128 32.3837C35.8 33.2253 35.3627 33.9394 34.6506 34.6509C33.9394 35.3629 33.2264 35.8013 32.3848 36.1283C31.5703 36.4448 30.6391 36.6605 29.2765 36.7229C27.9111 36.7851 27.4762 36.8003 23.9996 36.8003C20.5236 36.8003 20.0876 36.7851 18.7222 36.7229C17.3598 36.6605 16.4294 36.4448 15.615 36.1283C14.7736 35.8013 14.0595 35.3629 13.3483 34.6509C12.6365 33.9394 12.1992 33.2253 11.872 32.3834C11.5557 31.5695 11.34 30.6394 11.2773 29.2767C11.2155 27.9114 11.2 27.4764 11.2 24.0001C11.2 20.5238 11.216 20.0873 11.2771 18.7219C11.3384 17.3598 11.5544 16.4294 11.8717 15.6152C12.1997 14.7736 12.6371 14.0595 13.3491 13.348C14.0606 12.6363 14.7747 12.1989 15.6166 11.872C16.4305 11.5555 17.3606 11.3397 18.7233 11.2773Z" fill="#C4C4C4"/>
<path fill-rule="evenodd" clip-rule="evenodd" d="M22.853 13.5071C23.0759 13.5068 23.3158 13.5069 23.5746 13.507L24.0013 13.5071C27.4189 13.5071 27.824 13.5194 29.1736 13.5807C30.4216 13.6378 31.0989 13.8463 31.5501 14.0215C32.1475 14.2535 32.5733 14.5309 33.0211 14.9789C33.4691 15.4269 33.7464 15.8535 33.979 16.4509C34.1542 16.9015 34.363 17.5789 34.4198 18.8269C34.4811 20.1762 34.4944 20.5816 34.4944 23.9976C34.4944 27.4137 34.4811 27.819 34.4198 29.1683C34.3627 30.4163 34.1542 31.0937 33.979 31.5444C33.747 32.1417 33.4691 32.567 33.0211 33.0148C32.5731 33.4628 32.1477 33.7401 31.5501 33.9721C31.0995 34.1481 30.4216 34.3561 29.1736 34.4132C27.8242 34.4745 27.4189 34.4879 24.0013 34.4879C20.5834 34.4879 20.1783 34.4745 18.8289 34.4132C17.5809 34.3556 16.9036 34.1471 16.4521 33.9719C15.8548 33.7399 15.4281 33.4625 14.9801 33.0145C14.5321 32.5665 14.2548 32.1409 14.0222 31.5433C13.847 31.0926 13.6382 30.4153 13.5814 29.1673C13.5201 27.8179 13.5078 27.4126 13.5078 23.9944C13.5078 20.5762 13.5201 20.173 13.5814 18.8237C13.6385 17.5757 13.847 16.8983 14.0222 16.4471C14.2542 15.8498 14.5321 15.4231 14.9801 14.9751C15.4281 14.5271 15.8548 14.2498 16.4521 14.0172C16.9033 13.8412 17.5809 13.6332 18.8289 13.5759C20.0097 13.5226 20.4674 13.5066 22.853 13.5039V13.5071ZM30.8339 15.6325C29.9859 15.6325 29.2978 16.3197 29.2978 17.1679C29.2978 18.016 29.9859 18.704 30.8339 18.704C31.6819 18.704 32.3699 18.016 32.3699 17.1679C32.3699 16.3199 31.6819 15.6319 30.8339 15.6319V15.6325ZM17.4279 24.0005C17.4279 20.3705 20.3709 17.4273 24.001 17.4271C27.6312 17.4271 30.5736 20.3704 30.5736 24.0005C30.5736 27.6307 27.6314 30.5726 24.0013 30.5726C20.3711 30.5726 17.4279 27.6307 17.4279 24.0005Z" fill="#C4C4C4"/>
<path d="M24.0011 19.7334C26.3574 19.7334 28.2678 21.6436 28.2678 24.0001C28.2678 26.3564 26.3574 28.2668 24.0011 28.2668C21.6445 28.2668 19.7344 26.3564 19.7344 24.0001C19.7344 21.6436 21.6445 19.7334 24.0011 19.7334Z" fill="#C4C4C4"/>
</svg>
