<svg width="40" height="40" viewBox="0 0 40 40" fill="none" xmlns="http://www.w3.org/2000/svg">
<path d="M19.9996 17.9765C21.5329 17.9765 28.988 13.7842 28.988 13.7842L29 13.0352C29 12.2082 28.3289 11.5371 27.4997 11.5371H12.4996C11.6711 11.5371 11 12.2082 11 13.0352V13.7026C11 13.7026 18.5368 17.9765 19.9996 17.9765Z" fill="black" fill-opacity="0.32"/>
<path d="M19.9996 21.9816C18.5368 21.9816 11.012 17.9766 11.012 17.9766L11 26.965C11 27.7919 11.6719 28.463 12.4996 28.463H27.4997C28.3289 28.463 29 27.7919 29 26.965L28.988 17.9766C28.988 17.9766 21.6033 21.9816 19.9996 21.9816Z" fill="black" fill-opacity="0.32"/>
</svg>
