<svg width="18" height="18" viewBox="0 0 18 18" fill="none" xmlns="http://www.w3.org/2000/svg">
    <path
        d="M1.35747 14.6212C0.830127 15.1486 0.805015 16.0903 1.37003 16.6302C1.90993 17.1952 2.86417 17.1701 3.39151 16.6427L9.48108 10.5532L15.5706 16.6427C16.1105 17.1826 17.0397 17.1952 17.5796 16.6302C18.1446 16.0903 18.132 15.1486 17.5921 14.6087L11.5026 8.51911L17.5921 2.4421C18.132 1.88965 18.1446 0.960519 17.5796 0.420619C17.0397 -0.144392 16.1105 -0.131836 15.5706 0.408064L9.48108 6.49763L3.39151 0.408064C2.86417 -0.11928 1.90993 -0.144392 1.37003 0.420619C0.805015 0.960519 0.830127 1.9022 1.35747 2.42955L7.44704 8.51911L1.35747 14.6212Z"
        fill="white" />
</svg>