<svg width="40" height="40" viewBox="0 0 40 40" fill="none" xmlns="http://www.w3.org/2000/svg">
<g id="pause.fill">
<path id="pause.fill_2" d="M13.7599 29.9525H16.7105C17.9033 29.9525 18.5185 29.3373 18.5185 28.1445V10.8677C18.5185 9.64982 17.9033 9.07225 16.7105 9.05969H13.7599C12.5671 9.05969 11.9518 9.67493 11.9518 10.8677V28.1445C11.9393 29.3373 12.5545 29.9525 13.7599 29.9525ZM23.3023 29.9525H26.2404C27.4332 29.9525 28.0484 29.3373 28.0484 28.1445V10.8677C28.0484 9.64982 27.4332 9.05969 26.2404 9.05969H23.3023C22.0969 9.05969 21.4943 9.67493 21.4943 10.8677V28.1445C21.4943 29.3373 22.0969 29.9525 23.3023 29.9525Z" fill="#1C1C1E"/>
</g>
</svg>
