<svg width="40" height="40" viewBox="0 0 40 40" fill="none" xmlns="http://www.w3.org/2000/svg">
<g id="play">
<path id="play_2" d="M13.3203 30.5301C13.8477 30.5301 14.3122 30.3417 14.8898 30.0027L29.7182 21.4271C30.798 20.7993 31.25 20.3097 31.25 19.5186C31.25 18.7276 30.798 18.2505 29.7182 17.6102L14.8898 9.03455C14.3122 8.69554 13.8477 8.5072 13.3203 8.5072C12.2907 8.5072 11.5625 9.29822 11.5625 10.5412V28.496C11.5625 29.7516 12.2907 30.5301 13.3203 30.5301ZM14.2494 27.4162C14.1867 27.4162 14.1364 27.3535 14.1364 27.2656V11.7717C14.1364 11.6713 14.1867 11.621 14.2494 11.621C14.2997 11.621 14.3499 11.6462 14.4001 11.6838L27.7344 19.3805C27.7846 19.4182 27.8348 19.4559 27.8348 19.5186C27.8348 19.5814 27.7846 19.6191 27.7344 19.6568L14.4001 27.3535C14.3499 27.3911 14.2997 27.4162 14.2494 27.4162Z" fill="#1C1C1E"/>
</g>
</svg>
