<svg width="32" height="32" viewBox="0 0 32 32" fill="none" xmlns="http://www.w3.org/2000/svg">
<g id="arrow.up.left.and.down.right.and.arrow.up.right.and.down.left">
<path id="arrow.up.left.and.down.right.and.arrow.up.right.and.down.left_2" d="M6.20654 19.8437V24.3036C6.20654 24.9364 6.62842 25.3884 7.27128 25.3884H11.7512C12.7657 25.3884 13.0771 24.2935 12.394 23.6105L10.9275 22.144L15.99 17.0815L21.0525 22.154L19.5961 23.6105C18.913 24.2935 19.2244 25.3884 20.2389 25.3884H24.7188C25.3516 25.3884 25.7836 24.9364 25.7836 24.3036V19.8437C25.7836 18.8192 24.6786 18.5279 24.0057 19.2009L22.5391 20.6674L17.4766 15.5949L22.5391 10.5324L24.0057 11.9888C24.6786 12.6719 25.7836 12.3705 25.7836 11.346V6.88615C25.7836 6.26338 25.3516 5.81137 24.7188 5.81137H20.2389C19.2244 5.81137 18.913 6.89619 19.5961 7.58927L21.0626 9.04575L15.99 14.1183L10.9275 9.04575L12.394 7.58927C13.0771 6.89619 12.7657 5.81137 11.7512 5.81137H7.27128C6.62842 5.81137 6.20654 6.26338 6.20654 6.88615V11.346C6.20654 12.3705 7.30141 12.6719 7.98444 11.9888L9.45096 10.5223L14.5135 15.5949L9.44092 20.6674L7.98444 19.2009C7.30141 18.5279 6.20654 18.8192 6.20654 19.8437Z" fill="white"/>
</g>
</svg>
