<svg width="24" height="24" viewBox="0 0 24 24" fill="none" xmlns="http://www.w3.org/2000/svg">
<g id="arrow.up.left.and.down.right.and.arrow.up.right.and.down.left">
<path id="arrow.up.left.and.down.right.and.arrow.up.right.and.down.left_2" d="M4.65479 14.8828V18.2277C4.65479 18.7023 4.97119 19.0413 5.45333 19.0413H8.81327C9.57415 19.0413 9.80769 18.2201 9.29541 17.7079L8.19552 16.608L11.9924 12.8111L15.7893 16.6155L14.6969 17.7079C14.1846 18.2201 14.4182 19.0413 15.1791 19.0413H18.539C19.0136 19.0413 19.3375 18.7023 19.3375 18.2277V14.8828C19.3375 14.1144 18.5089 13.8959 18.0041 14.4007L16.9042 15.5005L13.1074 11.6961L16.9042 7.89926L18.0041 8.99161C18.5089 9.50389 19.3375 9.27788 19.3375 8.50947V5.1646C19.3375 4.69753 19.0136 4.35852 18.539 4.35852H15.1791C14.4182 4.35852 14.1846 5.17214 14.6969 5.69195L15.7968 6.7843L11.9924 10.5887L8.19552 6.7843L9.29541 5.69195C9.80769 5.17214 9.57415 4.35852 8.81327 4.35852H5.45333C4.97119 4.35852 4.65479 4.69753 4.65479 5.1646V8.50947C4.65479 9.27788 5.47593 9.50389 5.98821 8.99161L7.0881 7.89172L10.885 11.6961L7.08057 15.5005L5.98821 14.4007C5.47593 13.8959 4.65479 14.1144 4.65479 14.8828Z" fill="#1C1C1E"/>
</g>
</svg>
