<svg width="40" height="40" viewBox="0 0 40 40" fill="none" xmlns="http://www.w3.org/2000/svg">
<g id="stop">
<path id="stop_2" d="M9.54102 27.0019C9.54102 28.8476 10.671 29.9525 12.567 29.9525H27.4079C29.3164 29.9525 30.4464 28.8476 30.4464 27.0019V12.0103C30.4464 10.1646 29.3164 9.05969 27.4079 9.05969H12.567C10.671 9.05969 9.54102 10.1646 9.54102 12.0103V27.0019ZM12.0396 26.2737V12.7385C12.0396 11.9852 12.4791 11.5332 13.2324 11.5332H26.7927C27.546 11.5332 27.9855 11.9852 27.9855 12.7385V26.2737C27.9855 27.027 27.546 27.4791 26.7927 27.4791H13.2324C12.4791 27.4791 12.0396 27.027 12.0396 26.2737Z" fill="#1C1C1E"/>
</g>
</svg>
