<svg width="25" height="15" viewBox="0 0 25 15" fill="none" xmlns="http://www.w3.org/2000/svg">
    <path
        d="M22.5 2H15.5V0H22.5V2ZM24.2 12C23.8 13.3 22.2 15 19.1 15C16 15 13.5 13.3 13.5 9.3C13.5 5.4 15.8 3.4 19 3.4C22.1 3.4 24 5.2 24.4 7.8C24.5 8.3 24.5 9 24.5 10H16.5C16.6 13.2 20 13.3 21.1 12H24.2ZM16.5 8H21.5C21.4 6.5 20.4 5.8 19 5.8C17.6 5.8 16.8 6.5 16.5 8ZM7 15H0.5V0H7.5C13 0.1 13.1 5.4 10.2 6.9C13.6 8.2 13.7 15 7 15ZM3.5 6H7.1C9.6 6 10 3 6.8 3H3.5V6ZM6.9 9H3.5V12H6.8C9.9 12 9.7 9 6.9 9Z"
        fill="black" fill-opacity="0.32" />
</svg>