<svg width="240" height="47" viewBox="0 0 240 47" fill="none" xmlns="http://www.w3.org/2000/svg">
<path d="M29.5375 46.1808H20.5912V27.3788C20.5912 25.3721 19.9685 23.8794 18.7328 22.8711C17.6751 22.0407 16.3504 21.6255 14.7391 21.6255C13.1278 21.6255 11.8229 22.0407 10.8146 22.8711C9.57893 23.8794 8.95615 25.3721 8.95615 27.3788V46.1808H0L0 0.144531L8.94626 0.144531V17.3056C11.3781 15.0517 14.2448 14.2905 17.5564 14.2905C21.4117 14.2905 24.3675 15.3779 26.4335 17.5428C28.4995 19.7176 29.5276 22.5943 29.5276 26.1827V46.1709L29.5375 46.1808Z" fill="#555555"/>
<path d="M47.5853 11.5264H38.6292V3.78613L47.5853 3.78613V11.5264Z" fill="#555555"/>
<path d="M66.9178 46.4027H57.9716V15.2637H66.9178V46.4027Z" fill="#555555"/>
<path d="M105.603 46.0363H96.8641V43.3376C94.5707 45.631 91.6051 46.4119 87.9871 46.4119C84.369 46.4119 81.3243 45.4333 79.1693 43.4661C77.9732 42.3787 77.0637 40.8464 76.4508 38.8694C75.828 36.8923 75.5216 34.1936 75.5216 30.0714C75.5216 26.7795 75.6798 25.0298 76.006 23.3592C76.5101 20.6506 77.5679 18.5648 79.1693 17.1017C81.3243 15.1444 84.2405 14.1559 87.908 14.1559C89.8356 14.1559 91.4766 14.403 92.8309 14.8874C94.1852 15.3718 95.4604 15.8661 96.6467 17.1017V0L105.603 0V46.0363ZM96.6467 30.101C96.6467 27.0267 96.3007 25.5537 95.6186 24.2291C94.6992 22.4398 92.999 21.5403 90.5177 21.5403C88.0365 21.5403 86.3659 22.4102 85.4959 24.1599C84.804 25.4944 84.458 26.9772 84.458 30.101C84.458 33.2248 84.7842 35.1228 85.4268 36.4079C86.2967 38.1972 87.997 39.0869 90.5177 39.0869C93.0385 39.0869 94.6992 38.1972 95.6186 36.4079C96.3007 35.0833 96.6467 33.2248 96.6467 30.101Z" fill="#555555"/>
<path d="M127.162 11.0084V6.97518L121.774 6.97518V11.0084H119.708V1.04395L121.774 1.04395V5.24524L127.162 5.24524V1.04395L129.218 1.04395V11.0084L127.162 11.0084Z" fill="#555555"/>
<path d="M145.098 6.07922C145.068 8.65931 143.328 11.2295 139.473 11.2295C135.618 11.2295 133.838 8.70873 133.838 6.08911C133.838 3.46948 135.687 0.830078 139.473 0.830078C143.259 0.830078 145.127 3.45959 145.098 6.06934V6.07922ZM135.875 6.11876C135.924 7.75974 136.893 9.50945 139.483 9.50945C142.073 9.50945 143.042 7.73997 143.071 6.10888C143.101 4.42836 142.073 2.55014 139.483 2.55014C136.893 2.55014 135.835 4.44813 135.875 6.12865V6.11876Z" fill="#555555"/>
<path d="M156.983 1.01563L159.049 1.01563V10.9999L157.764 10.9999L152.001 4.2778V10.9999H149.935V1.0354L151.615 1.0354L156.993 7.21377V1.01563H156.983Z" fill="#555555"/>
<path d="M172.254 3.46751C171.513 2.82496 170.425 2.46908 169.466 2.46908C167.114 2.46908 165.69 4.09029 165.69 6.14645C165.69 7.78742 166.738 9.47783 169.466 9.47783C170.326 9.47783 171.078 9.30977 171.938 8.67711V6.90762H169.13V5.22711H173.826V9.4284C172.748 10.5553 171.384 11.2275 169.456 11.2275C165.334 11.2275 163.664 8.76608 163.664 6.14645C163.664 3.339 165.591 0.749023 169.456 0.749023C170.929 0.749023 172.402 1.26306 173.529 2.27137L172.244 3.46751H172.254Z" fill="#555555"/>
<path d="M179.491 10.9987V1.03418L181.537 1.03418V10.9987H179.491Z" fill="#555555"/>
<path d="M196.216 1.08361L191.343 5.85825L196.622 10.88V10.9987L194.071 10.9987L189.484 6.57989V10.9987H187.418V1.03418L189.484 1.03418V5.24536L193.646 1.03418L196.216 1.03418V1.09349V1.08361Z" fill="#555555"/>
<path d="M119.708 28.0934V18.1289H121.764V28.0934H119.708Z" fill="#555555"/>
<path d="M134.063 18.1074H136.129V28.0917H134.844L129.081 21.3696V28.0917H127.015V18.1272H128.685L134.063 24.3056V18.1074Z" fill="#555555"/>
<path d="M150.845 23.0222C150.895 25.543 149.205 28.0934 145.359 28.0934H141.049V18.1289H145.359C149.116 18.1289 150.796 20.5607 150.845 23.0222ZM143.105 26.2844H145.359C147.85 26.2844 148.839 24.6335 148.789 23.0123C148.74 21.4603 147.741 19.9083 145.359 19.9083H143.105V26.2844Z" fill="#555555"/>
<path d="M164.991 18.1387V23.8524C164.991 26.7983 163.004 28.3107 160.246 28.3107C157.488 28.3107 155.373 26.8576 155.373 23.8524V18.1387H157.429V23.8524C157.429 25.6417 158.556 26.6006 160.266 26.6006C161.976 26.6006 162.945 25.5626 162.945 23.8524V18.1387H165.001H164.991Z" fill="#555555"/>
<path d="M176.939 20.5283C176.563 19.9549 175.525 19.4211 174.339 19.4211C172.807 19.4211 172.065 20.0044 172.065 20.7458C172.065 21.6157 173.192 21.8529 174.507 22.0012C176.791 22.2582 178.926 22.8019 178.926 25.1744C178.926 27.3986 176.761 28.3476 174.319 28.3476C172.075 28.3476 170.355 27.7249 169.545 25.8961L171.265 25.0855C171.749 26.1827 173.024 26.6671 174.349 26.6671C175.674 26.6671 176.87 26.2519 176.87 25.1744C176.87 24.2353 175.792 23.8498 174.329 23.7114C172.085 23.4741 170.019 22.9304 170.019 20.6963C170.019 18.6501 172.243 17.8098 174.26 17.79C175.97 17.79 177.74 18.2349 178.57 19.7671L176.929 20.5382L176.939 20.5283Z" fill="#555555"/>
<path d="M186.531 19.8293H183.051V18.1191H192.077V19.8293H188.597V28.0935H186.531V19.8293Z" fill="#555555"/>
<path d="M206.221 28.0917H203.76L200.567 24.7603H198.58V28.0917H196.514V18.1074C198.254 18.1074 199.993 18.1272 201.733 18.1272C204.313 18.1371 205.678 19.7089 205.678 21.4289C205.678 22.7931 204.986 24.1771 202.91 24.5626L206.231 27.9632V28.0917H206.221ZM198.58 19.8769V23.0699H201.723C203.038 23.0699 203.602 22.2692 203.602 21.4783C203.602 20.6875 203.018 19.8868 201.723 19.8868H198.58V19.8769Z" fill="#555555"/>
<path d="M210.245 28.0934V18.1289H212.301V28.0934H210.245Z" fill="#555555"/>
<path d="M225.192 26.2054H219.459L218.52 28.0836H216.276L221.199 18.1191H223.452L228.365 28.0836H226.112L225.182 26.2054H225.192ZM222.325 20.2148L220.289 24.4557H224.362L222.325 20.2148Z" fill="#555555"/>
<path d="M234.365 18.1191V26.3537H240V28.0935H232.289V18.129H234.355L234.365 18.1191Z" fill="#555555"/>
<path d="M129.343 40.1023C129.392 42.623 127.702 45.1735 123.857 45.1735H119.547V35.209H123.857C127.613 35.209 129.294 37.6408 129.343 40.1121V40.1023ZM121.603 43.3644H123.857C126.348 43.3644 127.336 41.7136 127.287 40.0924C127.237 38.5404 126.239 36.9884 123.857 36.9884H121.603V43.3644Z" fill="#555555"/>
<path d="M142.043 45.1735H133.838V35.209H142.043V37.0279H135.885V39.3213H141.826V41.071H135.885V43.3249H142.043V45.1735Z" fill="#555555"/>
<path d="M153.576 37.6103C153.201 37.037 152.163 36.5032 150.976 36.5032C149.444 36.5032 148.703 37.0864 148.703 37.8278C148.703 38.6977 149.83 38.935 151.144 39.0833C153.428 39.3403 155.563 39.884 155.563 42.2565C155.563 44.4807 153.398 45.4297 150.957 45.4297C148.713 45.4297 146.992 44.8069 146.182 42.9781L147.902 42.1675C148.386 43.2648 149.652 43.7492 150.986 43.7492C152.321 43.7492 153.507 43.334 153.507 42.2565C153.507 41.3173 152.429 40.9318 150.966 40.7934C148.722 40.5562 146.656 40.0125 146.656 37.7784C146.656 35.7321 148.881 34.8918 150.897 34.8721C152.607 34.8721 154.377 35.3169 155.207 36.8491L153.566 37.6202L153.576 37.6103Z" fill="#555555"/>
<path d="M160.334 45.1735V35.209H162.39V45.1735H160.334Z" fill="#555555"/>
<path d="M175.644 37.6415C174.912 36.9989 173.815 36.643 172.856 36.643C170.503 36.643 169.08 38.2642 169.08 40.3204C169.08 41.9614 170.128 43.6518 172.856 43.6518C173.716 43.6518 174.467 43.4837 175.327 42.8511V41.0816H172.52V39.4011H177.216V43.6023C176.138 44.7293 174.774 45.3916 172.846 45.3916C168.724 45.3916 167.053 42.9301 167.053 40.3105C167.053 37.5031 168.981 34.9131 172.846 34.9131C174.319 34.9131 175.792 35.4271 176.919 36.4354L175.634 37.6316L175.644 37.6415Z" fill="#555555"/>
<path d="M189.29 35.1982H191.356V45.1825H190.071L184.307 38.4604V45.1825H182.241V35.218H183.922L189.299 41.3964V35.1982H189.29Z" fill="#555555"/>
</svg>
