<svg width="90" height="18" viewBox="0 0 90 18" fill="none" xmlns="http://www.w3.org/2000/svg">
<g id="Group 102">
<path id="Vector" d="M11.0765 17.6154H7.72167V10.5647C7.72167 9.8122 7.48813 9.25244 7.02476 8.87433C6.62811 8.56294 6.13137 8.40725 5.52713 8.40725C4.92289 8.40725 4.43357 8.56294 4.05545 8.87433C3.59208 9.25244 3.35854 9.8122 3.35854 10.5647V17.6154H0L0 0.351929L3.35483 0.351929V6.78729C4.26675 5.94209 5.34178 5.65665 6.58363 5.65665C8.02936 5.65665 9.13775 6.06442 9.91251 6.87625C10.6873 7.6918 11.0728 8.77053 11.0728 10.1162V17.6117L11.0765 17.6154Z" fill="white"/>
<path id="Vector_2" d="M17.8443 4.62036H14.4857V1.71777H17.8443V4.62036Z" fill="#09287A"/>
<path id="Vector_3" d="M25.0942 17.6985H21.7394V6.02148H25.0942V17.6985Z" fill="white"/>
<path id="Vector_4" d="M39.601 17.5614H36.324V16.5494C35.4639 17.4094 34.3518 17.7022 32.9951 17.7022C31.6383 17.7022 30.4966 17.3352 29.6884 16.5975C29.2399 16.1898 28.8988 15.6152 28.669 14.8738C28.4355 14.1324 28.3206 13.1204 28.3206 11.5746C28.3206 10.3401 28.3799 9.68399 28.5022 9.0575C28.6913 8.04178 29.0879 7.2596 29.6884 6.71097C30.4966 5.97698 31.5901 5.60628 32.9654 5.60628C33.6883 5.60628 34.3037 5.69896 34.8115 5.8806C35.3194 6.06224 35.7976 6.24759 36.2424 6.71097V0.297852L39.601 0.297852V17.5614ZM36.2424 11.5857C36.2424 10.4328 36.1127 9.88046 35.8569 9.38372C35.5121 8.71275 34.8745 8.37541 33.9441 8.37541C33.0136 8.37541 32.3871 8.70163 32.0609 9.35777C31.8014 9.85821 31.6717 10.4143 31.6717 11.5857C31.6717 12.7571 31.794 13.4688 32.035 13.9507C32.3612 14.6217 32.9988 14.9553 33.9441 14.9553C34.8894 14.9553 35.5121 14.6217 35.8569 13.9507C36.1127 13.454 36.2424 12.7571 36.2424 11.5857Z" fill="white"/>
<g id="Group">
<path id="Vector_5" d="M47.6855 4.42672V2.91427L45.6651 2.91427V4.42672H44.8904V0.690063L45.6651 0.690063V2.26554L47.6855 2.26554V0.690063L48.4565 0.690063V4.42672H47.6855Z" fill="white"/>
<path id="Vector_6" d="M54.4117 2.57743C54.4006 3.54496 53.7482 4.50878 52.3024 4.50878C50.8567 4.50878 50.1895 3.56349 50.1895 2.58113C50.1895 1.59878 50.8827 0.609009 52.3024 0.609009C53.7222 0.609009 54.4228 1.59507 54.4117 2.57372V2.57743ZM50.9531 2.59226C50.9716 3.20762 51.3349 3.86376 52.3062 3.86376C53.2774 3.86376 53.6407 3.2002 53.6518 2.58855C53.6629 1.95836 53.2774 1.25403 52.3062 1.25403C51.3349 1.25403 50.9383 1.96577 50.9531 2.59596V2.59226Z" fill="white"/>
<path id="Vector_7" d="M58.8686 0.678467L59.6433 0.678467V4.42254H59.1614L57.0002 1.90178V4.42254H56.2255V0.685881L56.8557 0.685881L58.8723 3.00276V0.678467H58.8686Z" fill="white"/>
<path id="Vector_8" d="M64.5952 1.59841C64.3171 1.35745 63.9094 1.224 63.5498 1.224C62.6675 1.224 62.1337 1.83195 62.1337 2.603C62.1337 3.21837 62.5267 3.85226 63.5498 3.85226C63.8723 3.85226 64.154 3.78924 64.4765 3.552V2.88844L63.4237 2.88844V2.25825H65.1846V3.83373C64.7805 4.25633 64.2689 4.5084 63.5461 4.5084C62.0003 4.5084 61.3738 3.58536 61.3738 2.603C61.3738 1.55021 62.0966 0.578979 63.5461 0.578979C64.0984 0.578979 64.6508 0.771744 65.0734 1.14986L64.5915 1.59841H64.5952Z" fill="white"/>
<path id="Vector_9" d="M67.3091 4.42282V0.686157L68.0764 0.686157V4.42282H67.3091Z" fill="white"/>
<path id="Vector_10" d="M73.5812 0.704692L71.7537 2.49518L73.7332 4.37833V4.42282H72.7768L71.0567 2.76579V4.42282H70.282V0.686157L71.0567 0.686157V2.26534L72.6174 0.686157L73.5812 0.686157V0.708399V0.704692Z" fill="white"/>
<path id="Vector_11" d="M44.8904 10.8329V7.09619H45.6614V10.8329H44.8904Z" fill="white"/>
<path id="Vector_12" d="M50.2737 7.08862H51.0485V10.8327H50.5666L48.4054 8.31193V10.8327H47.6306V7.09604H48.2571L50.2737 9.41291V7.08862Z" fill="white"/>
<path id="Vector_13" d="M56.5671 8.93116C56.5856 9.87644 55.9517 10.8329 54.5097 10.8329H52.8934V7.09619H54.5097C55.9183 7.09619 56.5485 8.00811 56.5671 8.93116ZM53.6645 10.1545H54.5097C55.4438 10.1545 55.8145 9.5354 55.796 8.92745C55.7775 8.34545 55.4031 7.76345 54.5097 7.76345H53.6645V10.1545Z" fill="white"/>
<path id="Vector_14" d="M61.8717 7.09998V9.24262C61.8717 10.3473 61.1266 10.9145 60.0923 10.9145C59.0581 10.9145 58.2648 10.3696 58.2648 9.24262V7.09998H59.0358V9.24262C59.0358 9.91359 59.4584 10.2732 60.0997 10.2732C60.741 10.2732 61.1043 9.88393 61.1043 9.24262V7.09998H61.8754H61.8717Z" fill="white"/>
<path id="Vector_15" d="M66.3521 7.99657C66.2112 7.78156 65.822 7.58138 65.3771 7.58138C64.8025 7.58138 64.5245 7.8001 64.5245 8.07812C64.5245 8.40434 64.9471 8.49331 65.4401 8.54891C66.2965 8.64529 67.0972 8.84918 67.0972 9.73886C67.0972 10.5729 66.2853 10.9288 65.3697 10.9288C64.5282 10.9288 63.8832 10.6953 63.5792 10.0095L64.2242 9.7055C64.4059 10.117 64.8841 10.2986 65.3808 10.2986C65.8776 10.2986 66.3261 10.1429 66.3261 9.73886C66.3261 9.38669 65.9221 9.24212 65.3734 9.19022C64.5319 9.10125 63.7572 8.89737 63.7572 8.05959C63.7572 7.29224 64.5912 6.97714 65.3475 6.96973C65.9888 6.96973 66.6523 7.13654 66.9637 7.71113L66.3484 8.00027L66.3521 7.99657Z" fill="white"/>
<path id="Vector_16" d="M69.949 7.7336H68.6442V7.09229L72.0287 7.09229V7.7336H70.7238V10.8327H69.949V7.7336Z" fill="white"/>
<path id="Vector_17" d="M77.3327 10.8326H76.4096L75.2123 9.58331H74.4671V10.8326H73.6924V7.0885C74.3448 7.0885 74.9973 7.09592 75.6497 7.09592C76.6172 7.09962 77.1288 7.68904 77.1288 8.33405C77.1288 8.84562 76.8693 9.3646 76.0908 9.50917L77.3364 10.7844V10.8326H77.3327ZM74.4671 7.75205V8.94942H75.646C76.139 8.94942 76.3503 8.64915 76.3503 8.35259C76.3503 8.05603 76.1316 7.75576 75.646 7.75576L74.4671 7.75576V7.75205Z" fill="white"/>
<path id="Vector_18" d="M78.8414 10.8329V7.09619H79.6125V10.8329H78.8414Z" fill="white"/>
<path id="Vector_19" d="M84.4467 10.1246H82.2967L81.9445 10.8289H81.103L82.9491 7.09229H83.7943L85.6367 10.8289L84.7915 10.8289L84.443 10.1246H84.4467ZM83.3717 7.87817L82.6081 9.46847H84.1354L83.3717 7.87817Z" fill="white"/>
<path id="Vector_20" d="M87.887 7.09229V10.1802H90V10.8327H87.1085V7.09599H87.8833L87.887 7.09229Z" fill="white"/>
<path id="Vector_21" d="M48.5036 15.3363C48.5221 16.2816 47.8882 17.238 46.4462 17.238H44.83V13.5013H46.4462C47.8549 13.5013 48.4851 14.4133 48.5036 15.34V15.3363ZM45.601 16.5596H46.4462C47.3804 16.5596 47.7511 15.9406 47.7325 15.3326C47.714 14.7506 47.3396 14.1686 46.4462 14.1686H45.601V16.5596Z" fill="white"/>
<path id="Vector_22" d="M53.2663 17.238H50.1895V13.5013H53.2663V14.1834H50.9568V15.0435H53.1847V15.6996H50.9568V16.5448H53.2663V17.238Z" fill="white"/>
<path id="Vector_23" d="M57.591 14.4017C57.4501 14.1867 57.0609 13.9865 56.616 13.9865C56.0414 13.9865 55.7634 14.2052 55.7634 14.4833C55.7634 14.8095 56.186 14.8985 56.679 14.9541C57.5353 15.0504 58.3361 15.2543 58.3361 16.144C58.3361 16.9781 57.5242 17.334 56.6086 17.334C55.7671 17.334 55.1221 17.1004 54.8181 16.4146L55.4631 16.1106C55.6448 16.5221 56.1193 16.7038 56.6197 16.7038C57.1202 16.7038 57.565 16.5481 57.565 16.144C57.565 15.7918 57.1609 15.6473 56.6123 15.5954C55.7708 15.5064 54.9961 15.3025 54.9961 14.4647C54.9961 13.6974 55.8301 13.3823 56.5864 13.3749C57.2277 13.3749 57.8912 13.5417 58.2026 14.1163L57.5872 14.4054L57.591 14.4017Z" fill="white"/>
<path id="Vector_24" d="M60.125 17.238V13.5013H60.8961V17.238H60.125Z" fill="white"/>
<path id="Vector_25" d="M65.8663 14.4135C65.592 14.1726 65.1805 14.0391 64.8209 14.0391C63.9386 14.0391 63.4048 14.6471 63.4048 15.4181C63.4048 16.0335 63.7978 16.6674 64.8209 16.6674C65.1434 16.6674 65.4251 16.6044 65.7477 16.3671V15.7036H64.6949V15.0734L66.4557 15.0734V16.6488C66.0516 17.0714 65.5401 17.3198 64.8172 17.3198C63.2714 17.3198 62.6449 16.3968 62.6449 15.4144C62.6449 14.3616 63.3678 13.3904 64.8172 13.3904C65.3695 13.3904 65.9219 13.5831 66.3445 13.9613L65.8626 14.4098L65.8663 14.4135Z" fill="white"/>
<path id="Vector_26" d="M70.9837 13.4976L71.7584 13.4976V17.2416H71.2765L69.1153 14.7209V17.2416H68.3406V13.505H68.9708L70.9874 15.8218V13.4976H70.9837Z" fill="white"/>
</g>
</g>
</svg>
