<svg width="166" height="32" viewBox="0 0 166 32" fill="none" xmlns="http://www.w3.org/2000/svg">
<path d="M20.3125 31.7569H14.1603L14.1603 18.8271C14.1603 17.4471 13.732 16.4206 12.8822 15.7272C12.1549 15.1561 11.2439 14.8706 10.1358 14.8706C9.02776 14.8706 8.13043 15.1561 7.43703 15.7272C6.58728 16.4206 6.159 17.4471 6.159 18.8271L6.159 31.7569H0L0 0.0985107L6.1522 0.0985107L6.1522 11.8999C7.82451 10.3499 9.79594 9.82649 12.0733 9.82649C14.7245 9.82649 16.7571 10.5743 18.1779 12.063C19.5987 13.5586 20.3057 15.5368 20.3057 18.0045L20.3057 31.7501L20.3125 31.7569Z" fill="#262626"/>
<path d="M32.7244 7.92539L26.5654 7.92539L26.5654 2.60254L32.7244 2.60254L32.7244 7.92539Z" fill="#262626"/>
<path d="M46.0218 31.911H39.8696L39.8696 10.4972L46.0218 10.4972L46.0218 31.911Z" fill="#262626"/>
<path d="M72.6224 31.6584H66.6129L66.6129 29.8026C65.0358 31.3797 62.9964 31.9167 60.5083 31.9167C58.0203 31.9167 55.9265 31.2437 54.4445 29.8909C53.6219 29.1431 52.9965 28.0894 52.575 26.7298C52.1468 25.3702 51.936 23.5144 51.936 20.6796C51.936 18.4159 52.0448 17.2126 52.2691 16.0637C52.6158 14.2011 53.3432 12.7667 54.4445 11.7606C55.9265 10.4146 57.9319 9.73477 60.4539 9.73477C61.7796 9.73477 62.908 9.90473 63.8394 10.2378C64.7707 10.5709 65.6476 10.9108 66.4634 11.7606L66.4634 0L72.6224 0L72.6224 31.6584ZM66.4634 20.7C66.4634 18.5858 66.2255 17.5729 65.7564 16.662C65.1242 15.4315 63.9549 14.8129 62.2486 14.8129C60.5423 14.8129 59.3935 15.4111 58.7952 16.6144C58.3194 17.5321 58.0814 18.5518 58.0814 20.7C58.0814 22.8482 58.3058 24.1534 58.7476 25.0371C59.3459 26.2676 60.5151 26.8794 62.2486 26.8794C63.9821 26.8794 65.1242 26.2676 65.7564 25.0371C66.2255 24.1262 66.4634 22.8482 66.4634 20.7Z" fill="#262626"/>
<path d="M87.4436 7.57372L87.4436 4.80013L83.7387 4.80013L83.7387 7.57372H82.3179L82.3179 0.721313L83.7387 0.721313L83.7387 3.61047L87.4436 3.61047L87.4436 0.721313L88.8576 0.721313L88.8576 7.57372H87.4436Z" fill="#262626"/>
<path d="M99.782 4.1797C99.7616 5.95398 98.5652 7.72147 95.9139 7.72147C93.2627 7.72147 92.0391 5.98797 92.0391 4.1865C92.0391 2.38502 93.3103 0.569946 95.9139 0.569946C98.5176 0.569946 99.8024 2.37822 99.782 4.1729V4.1797ZM93.4395 4.20689C93.4734 5.33536 94.1397 6.53861 95.9207 6.53861C97.7018 6.53861 98.368 5.32177 98.3884 4.20009C98.4088 3.04443 97.7018 1.7528 95.9207 1.7528C94.1397 1.7528 93.4123 3.05802 93.4395 4.21369V4.20689Z" fill="#262626"/>
<path d="M107.952 0.700195L109.373 0.700195L109.373 7.5662H108.489L104.526 2.94354L104.526 7.5662H103.105L103.105 0.713791L104.261 0.713791L107.959 4.96256L107.959 0.700195H107.952Z" fill="#262626"/>
<path d="M118.455 2.3863C117.945 1.94443 117.197 1.6997 116.538 1.6997C114.92 1.6997 113.941 2.81458 113.941 4.22857C113.941 5.35704 114.662 6.5195 116.538 6.5195C117.129 6.5195 117.646 6.40394 118.237 5.96886L118.237 4.75202H116.307L116.307 3.59635L119.536 3.59635L119.536 6.48551C118.795 7.26049 117.857 7.72275 116.531 7.72275C113.696 7.72275 112.547 6.03005 112.547 4.22857C112.547 2.29793 113.873 0.516846 116.531 0.516846C117.544 0.516846 118.557 0.870343 119.332 1.56374L118.448 2.3863H118.455Z" fill="#262626"/>
<path d="M123.433 7.56591L123.433 0.713501L124.84 0.713501L124.84 7.56591H123.433Z" fill="#262626"/>
<path d="M134.934 0.747491L131.583 4.03094L135.213 7.48433V7.56591H133.459L130.305 4.52719L130.305 7.56591H128.884L128.884 0.713501L130.305 0.713501L130.305 3.60946L133.167 0.713501L134.934 0.713501V0.754289V0.747491Z" fill="#262626"/>
<path d="M82.3179 19.319L82.3179 12.4666H83.7319L83.7319 19.319H82.3179Z" fill="#262626"/>
<path d="M92.1937 12.4532L93.6145 12.4532L93.6145 19.3193H92.7307L88.7675 14.6966L88.7675 19.3193H87.3467L87.3467 12.4668H88.4955L92.1937 16.7156L92.1937 12.4532Z" fill="#262626"/>
<path d="M103.73 15.8316C103.764 17.5651 102.602 19.319 99.9576 19.319H96.9937L96.9937 12.4666H99.9576C102.541 12.4666 103.696 14.1389 103.73 15.8316ZM98.4076 18.0749H99.9576C101.671 18.0749 102.35 16.9397 102.316 15.8248C102.283 14.7575 101.596 13.6902 99.9576 13.6902H98.4076L98.4076 18.0749Z" fill="#262626"/>
<path d="M113.458 12.4744L113.458 16.4036C113.458 18.4294 112.092 19.4695 110.195 19.4695C108.299 19.4695 106.844 18.4702 106.844 16.4036L106.844 12.4744H108.258L108.258 16.4036C108.258 17.6341 109.033 18.2935 110.209 18.2935C111.385 18.2935 112.051 17.5797 112.051 16.4036L112.051 12.4744L113.465 12.4744H113.458Z" fill="#262626"/>
<path d="M121.676 14.1183C121.418 13.724 120.704 13.3569 119.888 13.3569C118.835 13.3569 118.325 13.758 118.325 14.2678C118.325 14.8661 119.1 15.0292 120.004 15.1312C121.574 15.3079 123.043 15.6818 123.043 17.3134C123.043 18.8429 121.554 19.4955 119.875 19.4955C118.332 19.4955 117.149 19.0672 116.591 17.8096L117.774 17.2522C118.107 18.0068 118.984 18.3399 119.895 18.3399C120.806 18.3399 121.629 18.0543 121.629 17.3134C121.629 16.6675 120.888 16.4024 119.882 16.3072C118.338 16.1441 116.918 15.7702 116.918 14.2338C116.918 12.8267 118.447 12.2488 119.834 12.2352C121.01 12.2352 122.227 12.5411 122.798 13.5948L121.669 14.1251L121.676 14.1183Z" fill="#262626"/>
<path d="M128.271 13.6371H125.878L125.878 12.4611L132.085 12.4611L132.085 13.6371H129.692L129.692 19.3203H128.271L128.271 13.6371Z" fill="#262626"/>
<path d="M141.813 19.3193H140.121L137.925 17.0283H136.558L136.558 19.3193H135.138L135.138 12.4532C136.334 12.4532 137.531 12.4668 138.727 12.4668C140.501 12.4736 141.439 13.5545 141.439 14.7374C141.439 15.6755 140.964 16.6272 139.536 16.8924L141.82 19.2309V19.3193H141.813ZM136.558 13.6701L136.558 15.8659H138.72C139.624 15.8659 140.012 15.3152 140.012 14.7714C140.012 14.2275 139.611 13.6769 138.72 13.6769H136.558V13.6701Z" fill="#262626"/>
<path d="M144.58 19.319L144.58 12.4666H145.994L145.994 19.319H144.58Z" fill="#262626"/>
<path d="M154.861 18.0218H150.918L150.272 19.3135H148.729L152.114 12.4611H153.664L157.043 19.3135H155.493L154.854 18.0218H154.861ZM152.889 13.9022L151.489 16.8186H154.29L152.889 13.9022Z" fill="#262626"/>
<path d="M161.168 12.4611L161.168 18.1238H165.043L165.043 19.3203H159.741L159.741 12.4679H161.162L161.168 12.4611Z" fill="#262626"/>
<path d="M88.9458 27.5794C88.9798 29.3129 87.8173 31.0668 85.1729 31.0668H82.209L82.209 24.2144H85.1729C87.7562 24.2144 88.9118 25.8867 88.9458 27.5862V27.5794ZM83.623 29.8227H85.1729C86.886 29.8227 87.5658 28.6875 87.5318 27.5726C87.4978 26.5053 86.8112 25.438 85.1729 25.438H83.623L83.623 29.8227Z" fill="#262626"/>
<path d="M97.6814 31.0668H92.0391L92.0391 24.2144H97.6814L97.6814 25.4652H93.4463L93.4463 27.0423H97.5319L97.5319 28.2456H93.4463L93.4463 29.7955H97.6814L97.6814 31.0668Z" fill="#262626"/>
<path d="M105.609 25.8666C105.351 25.4723 104.637 25.1052 103.821 25.1052C102.767 25.1052 102.257 25.5063 102.257 26.0161C102.257 26.6144 103.032 26.7775 103.937 26.8795C105.507 27.0562 106.975 27.4301 106.975 29.0616C106.975 30.5912 105.486 31.2438 103.807 31.2438C102.264 31.2438 101.081 30.8155 100.524 29.5579L101.707 29.0005C102.04 29.755 102.91 30.0881 103.828 30.0881C104.745 30.0881 105.561 29.8026 105.561 29.0616C105.561 28.4158 104.82 28.1507 103.814 28.0555C102.271 27.8924 100.85 27.5185 100.85 25.9821C100.85 24.575 102.38 23.9971 103.767 23.9835C104.943 23.9835 106.159 24.2894 106.731 25.3431L105.602 25.8734L105.609 25.8666Z" fill="#262626"/>
<path d="M110.259 31.0668L110.259 24.2144H111.673L111.673 31.0668H110.259Z" fill="#262626"/>
<path d="M120.786 25.886C120.283 25.4442 119.528 25.1994 118.869 25.1994C117.251 25.1994 116.272 26.3143 116.272 27.7283C116.272 28.8568 116.993 30.0192 118.869 30.0192C119.46 30.0192 119.977 29.9037 120.568 29.4686L120.568 28.2517H118.638L118.638 27.0961H121.867L121.867 29.9852C121.126 30.7602 120.188 31.2157 118.862 31.2157C116.027 31.2157 114.878 29.523 114.878 27.7215C114.878 25.7908 116.204 24.0098 118.862 24.0098C119.875 24.0098 120.888 24.3633 121.663 25.0567L120.779 25.8792L120.786 25.886Z" fill="#262626"/>
<path d="M130.17 24.2089H131.591L131.591 31.0749H130.707L126.744 26.4522L126.744 31.0749H125.323L125.323 24.2225H126.479L130.177 28.4712L130.177 24.2089H130.17Z" fill="#262626"/>
</svg>
