<svg width="459" height="98" viewBox="0 0 459 98" fill="none" xmlns="http://www.w3.org/2000/svg">
<path d="M56.3892 96.6816H39.3066V57.1954C39.3066 52.9832 38.1228 49.8378 35.7552 47.7248C33.7386 45.9697 31.1989 45.0956 28.1292 45.0956C25.0596 45.0956 22.5612 45.9697 20.6341 47.7248C18.2664 49.8309 17.0895 52.9832 17.0895 57.1954V96.6816H0V0H17.0895V36.0448C21.7353 31.3095 27.207 29.7127 33.5183 29.7127C40.8758 29.7127 46.5264 31.9909 50.4771 36.5472C54.4208 41.1105 56.3892 47.1535 56.3892 54.6901V96.6816Z" fill="white"/>
<path d="M90.849 24.2102H73.7595V7.96005H90.849V24.2102Z" fill="white"/>
<path d="M127.771 97.4534H110.681V32.0538H127.771V97.4534Z" fill="white"/>
<path d="M201.642 96.6834H184.952V91.0189C180.568 95.8368 174.917 97.4749 168 97.4749C160.904 97.4749 155.288 95.4239 151.172 91.2942C148.894 89.0229 147.16 85.795 145.976 81.6378C144.792 77.4737 144.2 71.8299 144.2 63.1577C144.2 56.2337 144.51 52.5652 145.122 49.0481C146.086 43.3561 148.096 38.9787 151.172 35.909C155.288 31.7931 160.849 29.7283 167.863 29.7283C171.545 29.7283 174.676 30.2445 177.264 31.2701C179.845 32.2956 182.282 33.3349 184.56 35.9228V0.00872803H201.649V96.6834H201.642ZM184.546 63.2128C184.546 56.7499 183.892 53.6595 182.578 50.872C180.823 47.1141 177.581 45.2351 172.846 45.2351C168.11 45.2351 164.917 47.0659 163.251 50.7413C161.937 53.5356 161.276 56.6673 161.276 63.2196C161.276 69.8546 161.888 73.7571 163.12 76.4689C164.779 80.2199 168.028 82.0989 172.846 82.0989C177.581 82.0989 180.823 80.2199 182.578 76.4689C183.892 73.6676 184.546 69.7651 184.546 63.2128Z" fill="white"/>
<path d="M242.779 23.1322V14.6733H232.489V23.1322H228.539V2.20181H232.489V11.0255H242.779V2.20181H246.695V23.1322H242.779Z" fill="white"/>
<path d="M277.024 12.7626C276.963 18.1725 273.645 23.5892 266.288 23.5892C258.93 23.5892 255.523 18.2963 255.523 12.7902C255.523 7.29088 259.054 1.75717 266.288 1.75717C273.494 1.75717 277.08 7.29087 277.024 12.7626ZM259.405 12.8521C259.494 16.2935 261.346 19.9688 266.288 19.9688C271.222 19.9688 273.074 16.2591 273.136 12.8246C273.198 9.29375 271.222 5.34995 266.288 5.34995C261.353 5.34307 259.316 9.32128 259.405 12.8521Z" fill="white"/>
<path d="M299.723 2.14078H303.667V23.1055H301.217V23.1331L290.212 8.98908V23.1055H286.261V2.1683H289.461L299.716 15.1491V2.14078H299.723Z" fill="white"/>
<path d="M328.884 7.28856C327.48 5.94643 325.387 5.19622 323.557 5.19622C319.069 5.19622 316.351 8.60316 316.351 12.9117C316.351 16.3531 318.353 19.9115 323.557 19.9115C325.202 19.9115 326.64 19.5536 328.285 18.239V14.5292H322.93V10.9984H331.905V19.822C329.841 22.1828 327.239 23.5937 323.564 23.5937C315.697 23.5937 312.496 18.4179 312.496 12.9186C312.496 7.02703 316.172 1.58279 323.564 1.58279C326.379 1.58279 329.187 2.66338 331.341 4.78325L328.884 7.28856Z" fill="white"/>
<path d="M342.686 23.1085V2.1713H346.602V23.1085H342.686Z" fill="white"/>
<path d="M374.642 2.29266L365.343 12.3139L375.42 22.872V23.1129H370.547L361.785 13.8419V23.1129H357.834V2.17566H361.785V11.0268L369.741 2.17566H374.649V2.29266H374.642Z" fill="white"/>
<path d="M228.546 59.0029V38.0656H232.463V59.0029H228.546Z" fill="white"/>
<path d="M255.972 38.0351H259.923V58.9999H257.473V59.0274L246.467 44.8834V58.9999H242.517V38.0627H245.717L255.979 51.0435V38.0351H255.972Z" fill="white"/>
<path d="M288.005 48.3553C288.094 53.6481 284.866 59.0029 277.536 59.0029C274.969 59.0029 271.886 59.0029 269.312 59.0029V38.0656C271.886 38.0656 274.969 38.0656 277.536 38.0656C284.715 38.0656 287.915 43.1795 288.005 48.3553ZM273.228 55.2036H277.536C282.292 55.2036 284.178 51.7347 284.089 48.3278C283.999 45.0654 282.086 41.803 277.536 41.803H273.228V55.2036Z" fill="white"/>
<path d="M315.012 38.0962V50.0859C315.012 56.2734 311.213 59.4464 305.948 59.4464C300.923 59.4464 296.649 56.3973 296.649 50.0859V38.0962H300.565V50.0859C300.565 53.8507 302.72 55.8536 305.975 55.8536C309.237 55.8536 311.089 53.6718 311.089 50.0859V38.0962H315.012Z" fill="white"/>
<path d="M337.826 43.121C337.103 41.9303 335.135 40.7877 332.856 40.7877C329.924 40.7877 328.52 42.0129 328.52 43.5684C328.52 45.3923 330.675 45.9016 333.187 46.1976C337.557 46.7344 341.625 47.8701 341.625 52.8669C341.625 57.5334 337.495 59.5363 332.836 59.5363C328.562 59.5363 325.272 58.2217 323.709 54.3949L326.999 52.688C327.928 54.9937 330.351 56.0054 332.891 56.0054C335.375 56.0054 337.709 55.1382 337.709 52.8669C337.709 50.8916 335.644 50.0863 332.863 49.7835C328.589 49.2741 324.639 48.1385 324.639 43.4445C324.639 39.1359 328.885 37.3739 332.746 37.3464C336.009 37.3464 339.388 38.2755 340.971 41.5035L337.826 43.121Z" fill="white"/>
<path d="M356.128 41.6515H349.493V38.0656C355.536 38.0656 360.65 38.0656 366.72 38.0656V41.6515H360.079V58.996H356.128V41.6515Z" fill="white"/>
<path d="M393.726 58.9999H389.032L382.928 52.0002H379.128V58.9999H375.185V38.0351C378.502 38.0351 381.826 38.0696 385.144 38.0696C390.079 38.0971 392.68 41.387 392.68 45.0073C392.68 47.8774 391.366 50.775 387.387 51.5872L393.726 58.7384V58.9999ZM379.128 41.7449V48.4418H385.137C387.649 48.4418 388.73 46.7693 388.73 45.0899C388.73 43.4174 387.621 41.738 385.137 41.738H379.128V41.7449Z" fill="white"/>
<path d="M401.416 59.0029V38.0656H405.332V59.0029H401.416Z" fill="white"/>
<path d="M429.944 55.0522H418.994L417.197 59.0029H412.923L422.311 38.0656H426.62L436.008 59.0029H431.706L429.944 55.0522ZM424.472 42.4637L420.584 51.3768H428.361L424.472 42.4637Z" fill="white"/>
<path d="M447.472 38.0638V55.3463H458.237V58.9942H443.522V38.0569H447.472V38.0638Z" fill="white"/>
<path d="M246.934 84.2453C247.024 89.5381 243.796 94.8929 236.466 94.8929C233.899 94.8929 230.815 94.8929 228.241 94.8929V73.9556C230.815 73.9556 233.899 73.9556 236.466 73.9556C243.644 73.9556 246.845 79.0695 246.934 84.2453ZM232.157 91.0936H236.466C241.222 91.0936 243.108 87.6247 243.018 84.2178C242.929 80.9554 241.015 77.6998 236.466 77.6998H232.157V91.0936Z" fill="white"/>
<path d="M271.187 94.8929H255.516C255.516 87.9207 255.516 80.9278 255.516 73.9556H271.187V77.7824H259.432V82.6003H270.767V86.2757H259.432V91.0041H271.187V94.8929Z" fill="white"/>
<path d="M293.207 79.0091C292.491 77.8115 290.515 76.6759 288.244 76.6759C285.312 76.6759 283.908 77.901 283.908 79.4565C283.908 81.2804 286.062 81.7897 288.575 82.0857C292.938 82.6225 297.006 83.7582 297.006 88.755C297.006 93.4215 292.883 95.4244 288.217 95.4244C283.943 95.4244 280.653 94.1098 279.097 90.283L282.387 88.5761C283.309 90.8818 285.739 91.8936 288.279 91.8936C290.763 91.8936 293.09 91.0263 293.09 88.755C293.09 86.7797 291.025 85.9744 288.244 85.6716C283.97 85.1623 280.019 84.0266 280.019 79.3326C280.019 75.024 284.266 73.262 288.127 73.2276C291.39 73.2276 294.762 74.1568 296.352 77.3848L293.207 79.0091Z" fill="white"/>
<path d="M306.126 94.8929V73.9556H310.042V94.8929H306.126Z" fill="white"/>
<path d="M335.341 79.071C333.937 77.722 331.845 76.9787 330.014 76.9787C325.527 76.9787 322.808 80.3857 322.808 84.6942C322.808 88.1356 324.811 91.694 330.014 91.694C331.659 91.694 333.097 91.3361 334.742 90.0215V86.3117H329.388V82.7808H338.363V91.6045C336.298 93.9653 333.696 95.3693 330.021 95.3693C322.154 95.3693 318.954 90.1935 318.954 84.6942C318.954 78.8026 322.629 73.3584 330.021 73.3584C332.836 73.3584 335.644 74.4321 337.798 76.5589L335.341 79.071Z" fill="white"/>
<path d="M361.393 73.9295H365.344V94.8943H362.894V94.9218L351.889 80.7778V94.8943H347.938V73.957H351.138L361.393 86.9378V73.9295Z" fill="white"/>
</svg>
