<svg width="40" height="40" viewBox="0 0 40 40" fill="none" xmlns="http://www.w3.org/2000/svg">
<path d="M20 12.65C22.4 12.65 22.7 12.65 23.675 12.725C26.15 12.8 27.275 14 27.35 16.4C27.425 17.375 27.425 17.6 27.425 20C27.425 22.4 27.425 22.7 27.35 23.6C27.275 26 26.075 27.2 23.675 27.275C22.7 27.35 22.475 27.35 20 27.35C17.6 27.35 17.3 27.35 16.4 27.275C13.925 27.2 12.8 26 12.725 23.6C12.65 22.625 12.65 22.4 12.65 20C12.65 17.6 12.65 17.3 12.725 16.4C12.8 14 14 12.8 16.4 12.725C17.3 12.65 17.6 12.65 20 12.65ZM20 11C17.525 11 17.225 11 16.325 11.075C13.025 11.225 11.225 13.025 11.075 16.325C11 17.225 11 17.525 11 20C11 22.475 11 22.775 11.075 23.675C11.225 26.975 13.025 28.775 16.325 28.925C17.225 29 17.525 29 20 29C22.475 29 22.775 29 23.675 28.925C26.975 28.775 28.775 26.975 28.925 23.675C29 22.775 29 22.475 29 20C29 17.525 29 17.225 28.925 16.325C28.775 13.025 26.975 11.225 23.675 11.075C22.775 11 22.475 11 20 11ZM20 15.35C17.45 15.35 15.35 17.45 15.35 20C15.35 22.55 17.45 24.65 20 24.65C22.55 24.65 24.65 22.55 24.65 20C24.65 17.45 22.55 15.35 20 15.35ZM20 23C18.35 23 17 21.65 17 20C17 18.35 18.35 17 20 17C21.65 17 23 18.35 23 20C23 21.65 21.65 23 20 23ZM24.8 14.15C24.2 14.15 23.75 14.6 23.75 15.2C23.75 15.8 24.2 16.25 24.8 16.25C25.4 16.25 25.85 15.8 25.85 15.2C25.85 14.6 25.4 14.15 24.8 14.15Z" fill="black" fill-opacity="0.32"/>
</svg>
